<?xml version="1.0" encoding="UTF-8"?>
<svg id="Calque_2" data-name="Calque 2" xmlns="http://www.w3.org/2000/svg" viewBox="0 0 132.78 259.02">
  <g id="Calque_1-2" data-name="Calque 1">
    <g>
      <path d="M132.72,229.08c-6.02,0-11.83.01-17.64-.03-.44,0-.99-.26-1.29-.58-2.21-2.42-5.13-3.13-8.16-3.1-3.3.04-6.68.16-9.86.92-3.75.9-5.06,3.46-5.05,8.12,0,4.67,1.33,7.06,5.07,8.13,5.46,1.56,11.02,1.4,16.52.05,1.04-.26,1.96-1.01,2.94-1.54-.05-.2-.11-.4-.16-.6h-12.42v-8.51h29.96v26.99c-2.67,0-5.38.07-8.07-.07-.4-.02-.97-.95-1.09-1.54-.31-1.46-.41-2.96-.59-4.42-.22-.06-.43-.18-.5-.12-8.78,7.09-18.93,6.93-29.24,5.3-3.15-.5-6.31-1.54-9.23-2.87-5.39-2.44-8.78-6.75-10.07-12.56-1.22-5.51-1.24-11.07,0-16.57,1.99-8.71,8.25-13.06,16.35-14.89,9.11-2.06,18.33-2.12,27.41.51,8.9,2.57,13.51,7.84,15.1,17.36Z"/>
      <path d="M102.96,196.04c-6.85-.09-13.59-.7-19.8-4.03-5.29-2.83-8.48-7.26-9.51-13-1.04-5.74-1.11-11.55.62-17.27,1.86-6.15,6.03-10.14,11.9-12.14,10.94-3.73,22.03-3.75,33.04-.15,7.72,2.52,12.49,8.9,13.24,17,.46,4.92.49,9.77-.89,14.56-1.83,6.35-6.09,10.56-12.23,12.39-5.28,1.57-10.81,2.25-16.24,3.33-.05-.23-.09-.46-.14-.69ZM93.93,171.49c.49,2.82.72,5.66,1.52,8.32,1.05,3.48,3.33,4.7,7.56,4.68,4.03-.02,6.27-1.27,7.34-4.67,1.74-5.52,1.73-11.15,0-16.67-1.06-3.39-3.36-4.69-7.33-4.71-4.17-.02-6.51,1.24-7.56,4.71-.81,2.67-1.03,5.51-1.53,8.32Z"/>
      <path d="M42.85,213.3h17.38v42.32c-6.18,0-12.33.05-18.47-.07-.72-.01-1.52-.9-2.11-1.55-6.32-6.96-12.62-13.95-18.9-20.95-.54-.6-.94-1.32-1.41-1.98-.24.14-.47.28-.71.42v23.98H1.36c-.07-.81-.17-1.53-.17-2.25-.01-12.49.04-24.97-.05-37.46-.01-2.07.57-2.71,2.65-2.66,6.24.13,12.49-.04,18.73.12,1.21.03,2.74.74,3.53,1.64,5.55,6.31,10.94,12.75,16.8,19.63v-21.19Z"/>
      <path d="M60.22,165.21h-20.35v28.87h-18.04c0-2.46,0-4.78,0-7.09,0-6.32-.11-12.65.06-18.97.07-2.4-.77-2.93-2.98-2.87-4.91.14-9.82.04-14.73.04-.89,0-1.79,0-2.84,0v-14.06h58.88v14.07Z"/>
      <path d="M91.35,123.47h-18.97v-49.84h18.87v15.91h22.64v-15.95h18.89v49.79h-18.8v-15.9h-22.63v15.99ZM88.9,105.11h27.46v16.17c4.52,0,8.75.05,12.98-.07.47-.01,1.26-.99,1.29-1.56.15-2.4.07-4.82.07-7.24,0-11.4.01-22.81-.02-34.21,0-.96.49-2.41-1.27-2.43-4.3-.05-8.6-.01-13.18-.01v16.14h-27.35v-16.15c-4.18,0-8.16.07-12.13-.03-1.75-.04-2.3.55-2.28,2.3.08,7.16.03,14.32.03,21.47,0,6.49-.03,12.98.04,19.48,0,.76.55,2.16.88,2.17,4.44.15,8.89.1,13.47.1v-16.12Z"/>
      <path d="M0,48.25V2.23c.95-.04,1.77-.11,2.58-.11,11.73,0,23.47.2,35.19-.06,13.93-.31,23.09,10.81,22.79,23.57-.26,10.88-6.14,19.03-15.91,21.94-1.88.56-3.92.83-5.89.84-12.4.07-24.79.04-37.19.03-.48,0-.96-.12-1.56-.19ZM2.33,45.9c.51.08.84.16,1.16.16,11.89,0,23.79.15,35.67-.1,2.88-.06,6.01-.86,8.56-2.2,8.35-4.39,12.33-14.48,9.87-23.92-2.63-10.06-9.44-15.34-19.88-15.36-10.89-.02-21.79,0-32.68,0-.88,0-1.76.08-2.7.12v41.28Z"/>
      <path d="M19.22,111.02v10.56H0v-45.97c.61-.05,1.09-.14,1.57-.14,13.81,0,27.63-.1,41.44.04,7.98.08,14.45,4.99,16.73,12.24,3.61,11.47-4.52,22.96-16.56,23.23-6.99.16-13.98.03-20.97.04-.9,0-1.81,0-3,0ZM16.84,108.64c1.24,0,2.14,0,3.03,0,7.57,0,15.15,0,22.72,0,5.9,0,10.45-2.51,13.47-7.54,5.92-9.83-.68-23.52-14.13-23.36-12.4.15-24.8.08-37.2-.02-2.1-.02-2.66.64-2.64,2.69.09,12.15.04,24.3.05,36.45,0,.8.11,1.61.19,2.6,4.22,0,8.21-.1,12.18.04,1.94.07,2.44-.67,2.36-2.46-.12-2.71-.03-5.43-.03-8.4Z"/>
      <path d="M113.03,50.46h-20.26V0h20.26v50.46ZM110.88,2.18c-4.65,0-8.89.12-13.11-.05-2.17-.08-2.84.52-2.83,2.76.08,13.64,0,27.28-.02,40.92,0,.72.09,1.44.15,2.42,4.38,0,8.61-.11,12.83.05,2.23.09,2.98-.5,2.96-2.87-.1-13.47,0-26.95.01-40.42,0-.81,0-1.63,0-2.81Z"/>
      <path d="M16.63,16.12c6.87,0,13.52-.11,20.16.08,1.44.04,3.06.88,4.22,1.82,2.89,2.35,3.7,7.3,2.16,11.3-1.35,3.5-3.94,5.16-8.25,5.17-6.05.03-12.11,0-18.29,0v-18.39ZM19.07,18.53v13.56c5.9,0,11.62.12,17.34-.05,3.14-.09,5.05-2.78,5.1-6.56.06-3.89-1.67-6.79-4.65-6.9-5.88-.21-11.77-.06-17.79-.06Z"/>
      <path d="M16.98,98.08v-9.82c1.37,0,2.66,0,3.95,0,5.82,0,11.64,0,17.45.01,2.18,0,4.17.87,4.7,2.98.38,1.51.1,3.49-.63,4.87-.53.99-2.27,1.85-3.49,1.88-7.22.17-14.45.08-21.99.08ZM19.16,90.62c0,1.52-.14,2.69.06,3.8.09.51.86,1.26,1.33,1.27,6.05.08,12.1.15,18.15-.07.87-.03,2.37-1.6,2.34-2.41-.03-.89-1.48-2.43-2.36-2.46-6.36-.21-12.74-.11-19.52-.11Z"/>
    </g>
  </g>
</svg>